<svg width="31" height="31" viewBox="0 0 31 31" fill="none" xmlns="http://www.w3.org/2000/svg">
<path d="M14.0563 1.77295L10.4413 9.10626C10.1997 9.59627 9.71593 9.92096 9.17093 9.9588L2.03611 10.4543C0.779202 10.5416 0.157007 12.0224 0.974367 12.9812L6.43272 19.3843C6.77429 19.785 6.88664 20.3328 6.73037 20.8356L4.43254 28.2286C4.04483 29.476 5.29329 30.6067 6.49631 30.0977L14.8252 26.574C15.2075 26.4122 15.639 26.4122 16.0213 26.574L24.3006 30.0767C25.5118 30.5892 26.7644 29.4406 26.3587 28.1896L23.9822 20.8621C23.8145 20.3452 23.9327 19.7781 24.2929 19.3712L29.9675 12.961C30.8055 12.0145 30.2039 10.5175 28.944 10.4139L21.6562 9.81494C21.1217 9.77101 20.6489 9.4513 20.4091 8.97163L16.8058 1.76518C16.2384 0.630324 14.6173 0.634905 14.0563 1.77295Z" fill="#E8CE98" stroke="#EC9D55"/>
</svg>
