<svg width="62" height="66" viewBox="0 0 62 66" fill="none" xmlns="http://www.w3.org/2000/svg">
<path d="M31.0016 21.0552C19.6783 21.0552 11.1704 38.7137 11.1704 49.3788C11.1704 59.6069 18.8261 64.5103 29.0632 65.0478V53.4419L23.5089 47.0284C22.4256 45.7777 23.3142 43.8212 24.9741 43.8212H37.0288C38.6841 43.8212 39.5803 45.7738 38.494 47.0284L32.9399 53.4419V65.0478C43.1757 64.5105 50.8327 59.6081 50.8327 49.3788C50.8327 38.7099 42.323 21.0552 31.0016 21.0552ZM23.9964 39.1132C22.5803 39.1132 21.4323 37.9652 21.4323 36.549C21.4323 35.1328 22.5802 33.9848 23.9964 33.9848C25.4126 33.9848 26.5606 35.1328 26.5606 36.549C26.5606 37.9652 25.4126 39.1132 23.9964 39.1132ZM38.0036 39.1132C36.5875 39.1132 35.4394 37.9652 35.4394 36.549C35.4394 35.1328 36.5874 33.9848 38.0036 33.9848C39.4196 33.9848 40.5677 35.1328 40.5677 36.549C40.5677 37.9652 39.4196 39.1132 38.0036 39.1132Z" fill="url(#paint0_linear_75_259)"/>
<mask id="path-2-outside-1_75_259" maskUnits="userSpaceOnUse" x="21.8555" y="0.000488281" width="18" height="16" fill="black">
<rect fill="white" x="21.8555" y="0.000488281" width="18" height="16"/>
<path d="M31.5934 12.4258L36.0216 7.99893C37.1257 6.89519 37.1219 5.10414 36.0132 4.00507C34.8998 2.90138 33.0997 2.91869 32.0077 4.04358L31.2486 4.82566C31.2242 4.85071 31.1967 4.87245 31.1667 4.89029L31.1491 4.90078C31.0221 4.97628 30.8623 4.96806 30.7437 4.87994C30.7289 4.86893 30.715 4.85682 30.702 4.8437L29.877 4.01019C28.7787 2.90051 26.9886 2.89199 25.8797 3.99115C24.7646 5.09652 24.7646 6.89901 25.8797 8.00438L30.34 12.4258C30.676 12.7589 31.214 12.7706 31.5641 12.4524L31.5934 12.4258Z"/>
</mask>
<path d="M31.5934 12.4258L36.0216 7.99893C37.1257 6.89519 37.1219 5.10414 36.0132 4.00507C34.8998 2.90138 33.0997 2.91869 32.0077 4.04358L31.2486 4.82566C31.2242 4.85071 31.1967 4.87245 31.1667 4.89029L31.1491 4.90078C31.0221 4.97628 30.8623 4.96806 30.7437 4.87994C30.7289 4.86893 30.715 4.85682 30.702 4.8437L29.877 4.01019C28.7787 2.90051 26.9886 2.89199 25.8797 3.99115C24.7646 5.09652 24.7646 6.89901 25.8797 8.00438L30.34 12.4258C30.676 12.7589 31.214 12.7706 31.5641 12.4524L31.5934 12.4258Z" fill="url(#paint1_linear_75_259)"/>
<path d="M36.0216 7.99893L37.9222 9.90013L37.9222 9.90013L36.0216 7.99893ZM31.5934 12.4258L33.4012 14.4154L33.4486 14.3723L33.494 14.327L31.5934 12.4258ZM31.5641 12.4524L29.7562 10.4628L29.7562 10.4628L31.5641 12.4524ZM30.34 12.4258L32.2326 10.5166L32.2326 10.5166L30.34 12.4258ZM25.8797 8.00438L23.9872 9.91358H23.9872L25.8797 8.00438ZM31.1491 4.90078L32.5233 7.21128L32.5233 7.21127L31.1491 4.90078ZM31.1667 4.89029L29.7925 2.5798L29.7925 2.57981L31.1667 4.89029ZM31.2486 4.82566L29.3196 2.9532L29.3196 2.95321L31.2486 4.82566ZM32.0077 4.04358L33.9367 5.91604V5.91604L32.0077 4.04358ZM29.877 4.01019L27.9663 5.90128L27.9663 5.90128L29.877 4.01019ZM30.702 4.8437L32.6127 2.95262L32.6126 2.95261L30.702 4.8437ZM30.7437 4.87994L32.3477 2.72257L32.3476 2.72256L30.7437 4.87994ZM36.0132 4.00507L34.1206 5.91427L34.1207 5.91427L36.0132 4.00507ZM25.8797 3.99115L23.9872 2.08195L23.9872 2.08195L25.8797 3.99115ZM34.121 6.09773L29.6928 10.5246L33.494 14.327L37.9222 9.90013L34.121 6.09773ZM29.7855 10.4362L29.7562 10.4628L33.372 14.442L33.4012 14.4154L29.7855 10.4362ZM32.2326 10.5166L27.7723 6.09518L23.9872 9.91358L28.4475 14.335L32.2326 10.5166ZM32.5233 7.21127L32.5409 7.20078L29.7925 2.57981L29.7748 2.5903L32.5233 7.21127ZM33.1775 6.69812L33.9367 5.91604L30.0788 2.17113L29.3196 2.9532L33.1775 6.69812ZM27.9663 5.90128L28.7913 6.73479L32.6126 2.95261L31.7877 2.1191L27.9663 5.90128ZM28.7913 6.73478C28.8997 6.84427 29.0162 6.94541 29.1398 7.03733L32.3476 2.72256C32.4417 2.79246 32.5303 2.86937 32.6127 2.95262L28.7913 6.73478ZM32.5409 7.20079C32.7743 7.06198 32.9883 6.89296 33.1775 6.69811L29.3196 2.95321C29.4601 2.80846 29.6191 2.68291 29.7925 2.5798L32.5409 7.20079ZM34.1207 5.91427C34.1716 5.96476 34.1718 6.04703 34.121 6.09773L37.9222 9.90013C40.0797 7.74335 40.0723 4.24353 37.9058 2.09587L34.1207 5.91427ZM37.9058 2.09587C35.7301 -0.0608032 32.2126 -0.0269852 30.0788 2.17113L33.9367 5.91604C33.9868 5.86437 34.0695 5.86357 34.1206 5.91427L37.9058 2.09587ZM29.7748 2.59029C30.5806 2.11108 31.5954 2.16326 32.3477 2.72257L29.1398 7.03732C30.1291 7.77286 31.4637 7.84148 32.5233 7.21128L29.7748 2.59029ZM27.7723 5.90035C27.8261 5.84699 27.913 5.84741 27.9663 5.90128L31.7877 2.1191C29.6444 -0.0463839 26.151 -0.0630188 23.9872 2.08195L27.7723 5.90035ZM23.9872 2.08195C21.8111 4.23903 21.8111 7.7565 23.9872 9.91358L27.7723 6.09518C27.7182 6.04152 27.7182 5.95402 27.7723 5.90035L23.9872 2.08195ZM29.7562 10.4628C30.4646 9.81917 31.5529 9.84281 32.2326 10.5166L28.4475 14.335C29.7992 15.675 31.9634 15.722 33.372 14.442L29.7562 10.4628Z" fill="#ED9107" mask="url(#path-2-outside-1_75_259)"/>
<path d="M16.2543 25.3452C12.6401 27.0937 9.23971 30.0943 6.64842 33.1824C-3.70206 45.5176 -0.968735 56.3505 8.0054 54.8451C5.50021 45.681 10.2221 32.7857 16.2543 25.3452Z" fill="url(#paint2_linear_75_259)"/>
<path d="M55.3547 33.182C52.7635 30.0939 49.3627 27.093 45.7488 25.3447C51.7451 32.7409 56.5138 45.6409 53.9978 54.8449C62.9918 56.3533 65.6812 45.4883 55.3547 33.182Z" fill="url(#paint3_linear_75_259)"/>
<defs>
<linearGradient id="paint0_linear_75_259" x1="31.0016" y1="21.0552" x2="31.0016" y2="65.0478" gradientUnits="userSpaceOnUse">
<stop stop-color="#EE9809"/>
<stop offset="1" stop-color="#ED7507"/>
</linearGradient>
<linearGradient id="paint1_linear_75_259" x1="30.9395" y1="2.00049" x2="30.9395" y2="13.02" gradientUnits="userSpaceOnUse">
<stop stop-color="#EE9809"/>
<stop offset="1" stop-color="#ED7507"/>
</linearGradient>
<linearGradient id="paint2_linear_75_259" x1="8.12715" y1="25.3452" x2="8.12715" y2="54.9854" gradientUnits="userSpaceOnUse">
<stop stop-color="#EE9809"/>
<stop offset="1" stop-color="#ED7507"/>
</linearGradient>
<linearGradient id="paint3_linear_75_259" x1="53.8744" y1="25.3447" x2="53.8744" y2="54.9854" gradientUnits="userSpaceOnUse">
<stop stop-color="#EE9809"/>
<stop offset="1" stop-color="#ED7507"/>
</linearGradient>
</defs>
</svg>
